<?xml version="1.0" standalone="no"?>

<!DOCTYPE svg PUBLIC "-//W3C//DTD SVG 20010904//EN"

 "http://www.w3.org/TR/2001/REC-SVG-20010904/DTD/svg10.dtd">

<svg version="1.0" xmlns="http://www.w3.org/2000/svg"

 width="700.000000pt" height="200.000000pt" viewBox="0 0 700.000000 200.000000"

 preserveAspectRatio="xMidYMid meet">

<path fill="#fefefe" stroke="none" d="
M0 100

L0 0

L350 0

L700 0

L700 100

L700 200

L350 200

L0 200

L0 100

Z

"/>

<path fill="#fecca8" stroke="none" d="
M170 198

C166 198 158 193 156 189

C153 185 162 164 167 161

C169 160 169 160 167 163

C166 167 165 172 167 171

C167 170 169 167 171 163

C174 154 177 150 181 147

L184 145

L182 149

L180 153

L185 148

C193 142 202 136 212 133

C218 130 221 130 233 130

C241 130 253 130 260 130

C272 131 274 131 287 129

C295 127 306 124 311 123

C320 120 330 118 330 119

C330 120 322 124 315 126

C312 127 310 128 310 128

C310 130 339 125 342 123

C343 123 343 123 342 124

C341 126 341 126 344 126

C345 125 348 125 350 124

C351 124 353 123 353 122

C354 121 356 121 361 121

C367 122 381 121 384 119

C385 119 385 117 385 116

C384 115 383 115 374 115

C369 116 365 116 366 115

C369 112 393 107 401 107

C404 107 408 106 411 106

C413 105 419 105 422 104

C426 104 433 103 438 102

C443 102 448 101 448 101

C449 102 449 102 447 102

C446 102 443 103 441 103

C436 105 407 109 395 110

C391 110 387 111 387 111

C386 112 386 112 389 112

C390 111 396 111 402 110

C422 109 426 109 440 107

C463 103 464 103 473 101

C478 99 483 98 483 99

C483 99 488 98 493 96

C503 93 519 88 519 89

C519 89 517 90 514 92

C511 93 508 95 506 96

C504 97 505 98 512 98

C517 98 519 97 517 97

C515 96 515 96 517 96

C518 96 521 95 524 95

C527 94 537 93 547 93

C556 92 565 92 566 91

C567 91 571 90 575 89

C581 88 582 88 580 87

C578 86 578 86 579 86

C580 86 584 85 587 83

C604 75 628 71 634 75

C636 77 640 77 640 76

C640 76 641 76 640 77

C640 78 641 78 641 78

C642 77 643 77 643 78

C643 78 644 79 644 79

C646 80 646 79 644 75

C644 73 643 71 643 70

C644 70 645 72 647 75

C649 78 651 80 651 79

C652 79 652 80 652 81

C652 82 653 84 654 86

L657 90

L657 85

C658 78 659 77 660 79

C662 82 662 98 659 107

C657 116 656 118 650 123

C646 125 645 126 641 126

C638 126 634 126 632 127

C630 128 625 129 620 130

C610 132 602 135 600 137

C599 138 597 138 595 138

C593 138 593 137 598 133

C604 129 604 128 593 130

C580 133 566 139 562 144

C561 145 560 148 559 150

C559 154 559 154 561 153

C565 152 573 153 575 155

C576 156 579 157 585 157

C589 158 600 159 608 160

C616 162 626 163 630 164

C640 165 656 170 664 173

C667 174 670 175 670 176

C669 176 665 175 650 172

C645 172 648 174 655 176

C661 177 680 187 684 190

C685 192 688 193 690 194

C692 195 693 196 693 197

C693 198 693 198 687 196

C684 195 680 194 678 194

L674 193

L677 195

C679 196 680 197 680 198

C679 198 674 196 667 194

C641 184 635 182 618 181

C603 181 603 181 605 182

C606 183 609 185 612 186

C614 187 616 188 616 188

C616 189 610 188 603 186

C595 185 584 184 576 184

L562 183

L571 185

C576 186 580 188 580 188

C579 188 567 189 553 189

C539 190 524 190 519 191

C512 191 510 191 505 189

C502 188 500 186 500 186

C500 186 499 185 498 185

C496 184 495 185 495 187

C495 189 494 189 492 184

C490 180 488 175 488 173

C488 169 488 168 486 170

C485 171 485 171 485 168

C484 167 484 163 485 161

C486 158 494 146 496 146

C497 146 498 143 497 142

C496 141 486 144 470 148

C467 149 464 150 465 150

C466 151 455 156 452 156

C451 156 449 157 447 158

C446 158 442 159 438 160

C435 160 430 161 429 161

C428 162 421 163 414 163

C405 163 401 164 398 165

C395 166 390 167 382 168

C376 168 370 168 370 169

C369 169 371 172 373 172

C374 172 376 173 378 174

C380 175 379 175 367 175

C355 175 352 175 341 178

C334 180 327 182 325 183

C322 184 318 185 315 186

C310 186 309 186 311 187

C312 187 317 188 321 188

L329 188

L324 190

C322 190 314 192 308 192

C301 192 292 193 289 194

C281 195 276 195 266 193

C263 192 260 192 257 193

L254 193

L258 194

C261 194 261 195 253 196

C248 196 239 197 233 197

C227 197 219 198 217 198

C212 199 179 199 170 198

Z

M677 189

C676 189 676 189 675 189

C674 190 674 190 675 190

C676 190 677 190 677 189

Z

M430 158

L435 157

L429 157

C426 157 422 158 421 158

C418 159 418 159 422 159

C424 159 428 158 430 158

Z

M446 155

L448 154

L446 154

C444 154 442 155 440 156

L436 157

L440 156

C442 156 444 155 446 155

Z

M574 155

C574 154 573 154 572 154

C569 155 569 156 572 156

C573 156 574 156 574 155

Z

M451 153

C450 153 450 153 449 153

C448 154 448 154 449 154

C450 154 451 154 451 153

Z

M455 152

C454 152 454 152 453 152

C452 153 452 153 453 153

C454 153 455 153 455 152

Z

M459 151

C458 151 458 151 457 151

C456 152 456 152 457 152

C458 152 459 152 459 151

Z

M463 150

C462 150 462 150 461 150

C460 151 460 151 461 151

C462 151 463 151 463 150

Z

M429 115

C429 115 428 114 427 115

C425 115 425 115 426 114

C427 113 427 113 425 114

C424 114 420 114 417 114

C407 115 409 116 419 116

C425 116 429 116 429 115

Z

M433 114

C432 114 432 114 431 114

C430 115 430 115 431 115

C432 115 433 115 433 114

Z

M433 112

C432 112 432 112 431 112

C430 113 430 113 431 113

C432 113 433 113 433 112

Z

M450 111

C451 110 451 110 448 110

C446 110 442 111 440 111

L436 112

L442 112

C445 112 448 111 450 111

Z

M455 109

C455 109 453 109 453 109

C452 110 453 110 454 110

C455 110 456 110 455 109

Z

M524 96

C524 96 522 96 521 96

C520 97 521 97 523 97

C524 97 525 97 524 96

Z

M554 94

C555 94 532 94 530 95

C528 95 532 95 540 95

C547 95 553 95 554 94

Z

M501 192

C500 192 500 191 500 190

C501 189 506 191 507 193

C507 195 503 194 501 192

Z

M647 191

C644 190 637 189 631 187

L620 185

L626 184

C634 184 642 186 651 189

C657 192 656 192 647 191

Z

M690 189

C688 188 686 186 685 185

L683 183

L686 183

C688 184 691 185 692 187

C696 190 695 191 690 189

Z

M686 181

C683 180 686 180 689 181

C691 182 691 182 690 182

C688 182 687 181 686 181

Z

M151 173

C151 173 151 172 152 172

C153 171 153 172 152 172

C152 174 151 174 151 173

Z

M562 151

C563 151 566 150 568 149

C570 149 574 148 576 147

C579 146 581 145 581 146

C582 146 579 148 574 149

C567 151 560 152 562 151

Z

M341 115

C341 114 343 113 346 111

C349 110 351 109 350 110

C348 113 351 113 356 111

C363 108 374 105 384 104

C394 102 421 100 422 100

C422 101 406 103 400 103

C397 103 394 104 394 104

C393 104 389 105 385 105

C375 106 371 107 372 108

C372 108 370 109 368 109

C367 110 362 111 357 113

C351 115 341 116 341 115

Z

M315 113

C316 112 317 112 319 112

L321 112

L319 113

C317 113 316 114 315 114

C314 114 314 114 315 113

Z

M517 92

C517 91 517 91 518 91

C519 91 521 90 524 88

C528 85 541 81 542 81

C542 82 536 86 531 89

C527 91 517 93 517 92

Z

M548 89

C554 88 558 87 559 87

C559 86 565 85 572 84

C578 83 584 82 586 81

C587 81 587 81 587 82

C586 82 581 84 575 87

C565 90 564 90 552 91

L539 91

L548 89

Z

"/>

<path fill="#fe9a53" stroke="none" d="
M174 198

C167 197 163 195 159 191

C156 189 155 185 157 185

C158 185 158 184 158 183

C158 182 158 182 157 183

C154 188 159 174 162 168

C166 162 167 161 166 166

C165 169 166 172 167 172

C167 172 168 171 168 170

C169 168 170 166 171 164

C173 162 173 160 173 160

C171 160 176 153 179 149

C182 146 183 147 180 152

C179 154 178 155 179 155

C179 155 182 152 186 149

C192 143 200 138 210 134

C214 132 214 132 212 134

C211 135 210 136 210 136

C212 136 217 133 217 132

C218 131 243 130 265 131

C275 131 279 131 290 129

C297 127 307 125 312 123

C327 119 332 119 318 124

C314 125 311 127 310 128

C309 129 310 129 318 128

C322 128 329 127 333 126

C340 125 340 125 340 126

C339 127 340 127 342 127

C344 127 346 127 347 126

C347 125 348 125 350 125

C352 125 353 124 354 124

C354 122 357 122 366 122

C380 121 385 120 386 118

C386 116 384 114 382 114

C380 114 384 113 389 113

C395 112 403 111 411 112

L424 112

L415 113

C410 114 405 114 405 115

C404 115 402 116 401 116

C399 117 402 117 408 117

C420 117 437 115 445 113

C449 113 452 112 454 112

C455 112 456 112 456 111

C456 111 457 110 458 111

C459 111 463 110 467 109

C472 108 473 107 470 108

C468 108 462 108 457 109

C452 109 444 110 439 111

C427 112 425 112 425 111

C425 110 426 110 428 110

C430 110 431 110 431 109

C431 109 433 109 435 109

C437 109 438 109 438 108

C438 107 439 107 441 107

C442 108 444 108 444 107

C445 107 449 106 453 106

C456 105 464 104 470 102

C475 101 480 100 481 100

C483 100 494 97 502 94

C506 92 510 91 512 91

C515 90 515 90 510 93

C506 95 503 98 503 98

C502 99 516 99 526 97

C529 96 536 96 541 96

C546 96 552 95 555 95

C558 94 562 93 564 94

C567 94 567 94 565 93

C563 92 563 92 565 92

C566 91 571 90 576 89

C584 88 587 87 591 84

C603 75 629 72 635 78

C637 79 638 80 639 80

C639 79 642 80 644 82

C646 83 648 84 649 84

C649 84 648 82 647 80

C646 78 645 75 645 75

C646 73 656 89 656 91

C656 95 658 89 658 85

C658 78 660 80 661 88

C661 95 661 98 659 105

C658 110 656 115 655 117

C652 122 646 125 638 126

C627 127 607 132 598 136

C596 136 597 135 600 133

C602 130 604 129 604 128

C603 127 586 131 577 135

C564 140 559 144 558 152

C557 153 557 155 556 155

C555 155 555 155 555 154

C556 153 555 153 554 154

C553 156 554 156 560 156

C565 155 568 156 568 156

C568 156 570 157 572 157

C588 158 635 165 648 169

C657 171 669 175 667 175

C666 175 647 171 644 170

C639 169 645 173 652 175

C656 177 659 179 658 179

C658 180 665 183 667 183

C670 183 680 187 683 190

C684 191 687 193 689 194

C691 195 693 196 692 197

C692 197 690 197 689 196

C687 195 670 191 670 192

C670 192 671 193 673 194

C679 197 675 196 664 192

C658 189 648 186 642 184

C632 181 631 181 616 181

L602 182

L607 184

C609 186 611 187 611 187

C610 187 604 186 598 185

C584 183 566 181 560 182

C557 183 557 183 564 185

C579 187 578 188 557 188

C546 188 534 189 531 189

C518 191 513 191 507 189

C504 188 501 186 500 185

C497 183 494 183 494 185

C493 188 489 176 489 171

C489 166 488 165 488 167

C486 170 485 169 485 166

C485 161 488 155 494 149

C497 146 499 143 499 143

C498 141 494 141 486 143

C482 144 476 146 473 146

C470 147 466 148 465 149

C463 149 456 151 450 152

C443 154 437 155 437 156

C436 156 433 156 429 156

C421 157 410 160 415 160

C417 160 418 160 417 161

C417 162 416 162 415 161

C413 161 412 161 412 162

C411 162 409 163 408 162

C405 162 402 162 399 164

C393 166 382 168 376 167

C372 167 368 169 369 170

C369 171 371 172 373 173

C376 174 375 174 366 174

C356 174 352 175 340 178

C332 180 324 182 324 183

C323 183 320 184 318 184

C315 185 311 185 310 186

L307 186

L310 188

C312 188 316 189 318 189

C323 189 323 189 320 190

C315 191 291 193 281 193

C276 193 267 193 261 193

C254 192 250 192 248 193

C247 194 247 194 252 194

L258 194

L253 195

C251 196 242 196 234 196

C226 197 216 197 213 198

C204 199 183 199 174 198

Z

M680 191

C679 189 670 187 668 187

C667 187 679 192 681 192

C681 192 681 191 680 191

Z

M654 184

C653 183 652 183 651 183

C650 183 650 183 651 184

C653 185 654 185 654 184

Z

M541 180

C542 180 536 180 535 181

C534 182 535 182 537 181

C539 181 541 181 541 180

Z

M550 179

C551 178 550 178 548 179

C543 180 543 180 547 180

C548 180 550 180 550 179

Z

M309 175

C313 174 316 173 317 174

C317 174 318 174 318 173

C319 172 320 172 321 172

C321 172 322 172 321 173

C321 174 322 173 323 173

C325 171 327 171 332 172

C337 172 338 172 338 171

C339 170 338 170 335 171

C333 171 332 171 332 170

C332 170 331 169 330 169

C325 169 320 169 318 170

C317 170 310 172 304 173

C292 174 288 175 293 175

C294 175 295 176 296 177

C296 178 300 178 309 175

Z

M346 170

C345 170 343 169 342 169

C340 169 340 169 342 170

C343 170 345 171 347 171

C348 171 348 171 346 170

Z

M366 170

C365 170 364 169 363 170

C361 170 362 171 364 171

C365 171 366 171 366 170

Z

M348 168

C348 168 346 168 346 168

C345 169 346 169 347 169

C348 169 349 169 348 168

Z

M555 164

C553 164 549 164 547 164

C545 164 547 165 551 165

C555 165 557 164 555 164

Z

M395 163

L398 162

L394 162

C392 162 390 163 389 163

C387 164 387 164 389 164

C390 164 393 163 395 163

Z

M571 159

C571 159 569 159 569 159

C568 160 569 160 570 160

C571 160 572 160 571 159

Z

M260 153

C262 152 266 152 270 152

C274 152 276 152 275 151

C275 150 261 150 255 152

C253 152 250 153 249 153

C247 154 246 154 246 155

C246 155 248 155 251 154

C254 154 258 153 260 153

Z

M443 151

L446 150

L443 150

C442 150 440 150 439 151

C438 152 438 152 439 152

C440 152 442 151 443 151

Z

M462 147

C461 147 459 147 458 147

C457 148 457 148 460 148

C462 148 463 148 462 147

Z

M456 137

C455 137 455 137 454 137

C453 138 453 138 454 138

C455 138 456 138 456 137

Z

M472 135

C472 134 473 134 473 135

C474 135 474 135 473 134

C472 133 466 135 464 136

C463 137 470 136 472 135

Z

M307 130

C306 129 305 128 305 128

C304 128 304 129 305 130

C305 130 306 131 307 131

C308 131 308 131 307 130

Z

M360 125

C360 125 358 125 358 125

C357 126 358 126 359 126

C360 126 361 126 360 125

Z

M369 124

C368 124 366 124 365 124

C364 125 365 125 367 125

C369 125 370 125 369 124

Z

M583 119

C582 119 582 119 581 119

C580 120 580 120 581 120

C582 120 583 120 583 119

Z

M591 117

C591 117 590 117 590 117

C589 117 588 117 588 118

C588 119 589 119 590 118

C590 118 591 118 591 117

Z

M646 114

C645 113 645 113 645 114

C645 115 645 116 646 116

C646 115 646 115 646 114

Z

M498 99

C498 98 497 98 496 99

C494 99 492 100 492 100

C491 101 492 101 494 100

C495 100 497 99 498 99

Z

M652 89

C652 89 641 84 640 84

C639 84 641 85 645 87

C651 90 652 90 652 89

Z

M502 192

C499 190 500 190 503 191

C505 192 506 192 506 193

C506 195 503 194 502 192

Z

M639 188

C633 187 628 186 627 186

C627 186 626 186 626 185

C626 184 635 185 644 188

C648 189 652 190 652 191

C652 191 649 191 639 188

Z

M689 187

C687 187 685 185 684 184

C683 183 683 183 685 184

C688 184 694 188 694 189

C694 189 691 189 689 187

Z

M663 180

C662 179 662 179 663 179

C663 179 664 179 665 180

C666 181 666 181 666 181

C665 181 664 181 663 180

Z

M424 160

C424 160 427 159 430 159

C434 158 440 157 444 156

C453 154 455 154 448 156

C445 157 440 158 435 159

C431 160 427 160 426 161

C425 161 424 161 424 160

Z

M458 152

C460 152 463 151 463 151

C463 152 457 154 455 154

C454 154 456 153 458 152

Z

M343 114

C347 111 348 111 347 113

C347 114 346 115 344 115

C342 115 342 115 343 114

Z

M372 113

C374 113 376 113 377 113

C378 114 377 114 375 114

C372 114 371 114 372 113

Z

M354 113

C354 112 355 112 357 111

C359 110 360 110 359 111

C358 112 354 113 354 113

Z

M380 111

C386 109 390 108 392 109

C394 109 394 110 390 110

C388 111 383 111 381 112

C377 112 377 112 380 111

Z

M409 110

C410 110 412 110 413 110

C414 111 413 111 411 111

C409 111 408 111 409 110

Z

M396 109

C396 108 398 108 400 108

C402 108 404 108 403 108

C403 109 396 109 396 109

Z

M406 107

C406 107 408 107 408 107

C409 108 408 108 407 108

C406 108 405 108 406 107

Z

M411 107

C412 106 420 105 420 106

C419 107 417 107 415 107

C413 107 411 107 411 107

Z

M423 105

C424 105 426 105 427 105

C428 106 427 106 425 106

C422 106 422 106 423 105

Z

M381 105

C381 104 384 104 386 104

C389 103 390 103 389 104

C387 105 380 105 381 105

Z

M429 105

C429 104 430 104 432 104

C434 104 435 104 434 104

C434 105 429 105 429 105

Z

M409 101

C410 101 412 101 413 101

C414 102 413 102 411 102

C408 102 408 102 409 101

Z

M526 95

C526 94 527 94 529 94

C531 94 532 94 531 94

C531 95 526 95 526 95

Z

M545 94

C546 93 554 92 553 93

C553 94 551 94 549 94

C547 94 545 94 545 94

Z

M521 91

C521 90 534 84 538 83

C540 82 540 82 538 84

C531 88 521 92 521 91

Z

M544 90

C545 90 547 90 547 90

C548 91 547 91 546 91

C544 91 543 91 544 90

Z

M556 88

C562 86 569 85 579 83

C580 83 578 85 573 86

C566 89 563 90 557 90

L549 90

L556 88

Z

M584 86

C584 85 585 85 586 84

C588 83 588 83 587 84

C586 86 584 87 584 86

Z

"/>

</svg>

